<svg width="24" height="26" viewBox="0 0 24 26" fill="none" xmlns="http://www.w3.org/2000/svg">
<path d="M9.34693 25.7973C7.64982 25.7973 5.98074 25.2783 4.51925 24.2964C2.24294 22.7633 0.885254 20.2005 0.885254 17.4384C0.885254 12.7955 4.68118 9.01821 9.34693 9.01821C9.64587 9.01821 9.91783 9.0535 10.1815 9.0888C10.277 9.10125 10.3735 9.11371 10.4742 9.12513L11.1665 9.20194V15.1122L10.1794 14.8382C9.87942 14.7552 9.63549 14.7033 9.3459 14.7033C7.78891 14.7033 6.56928 15.9053 6.56928 17.4394C6.56928 18.4193 7.15574 19.3804 8.02869 19.8341C8.45634 20.0562 8.86219 20.1558 9.3459 20.1558C10.8437 20.1558 12.0613 18.9372 12.0613 17.4404V0.191162H17.7453V0.969653C17.7453 1.17829 17.7712 1.37343 17.8013 1.59867C17.8148 1.69728 17.8273 1.79693 17.8398 1.90177C18.0743 3.25115 19.0013 4.62752 20.1514 5.33128L20.17 5.3427C20.7243 5.70392 21.5942 6.09524 22.5813 5.90529L23.5072 5.72779V11.5177L22.7889 11.5737C21.017 11.7108 19.2473 11.2873 17.7453 10.3904V17.4384C17.7453 22.0481 13.9774 25.7973 9.3459 25.7973H9.34693ZM9.34693 10.5752C5.53959 10.5752 2.44224 13.6539 2.44224 17.4384C2.44224 19.6815 3.54354 21.7616 5.38805 23.0041C6.59107 23.8127 7.96018 24.2403 9.3459 24.2403C13.119 24.2403 16.1883 21.1886 16.1883 17.4384V7.11351L17.4858 8.27709C18.7096 9.37424 20.305 9.99807 21.9502 10.0406V7.51209C21.0637 7.49133 20.1731 7.20173 19.3293 6.65471C17.792 5.71015 16.6045 3.93934 16.3004 2.14154L16.2942 2.09795C16.2828 1.99622 16.2703 1.89969 16.2568 1.80627C16.2547 1.78759 16.2516 1.76787 16.2496 1.74918H13.6162V17.4394C13.6162 19.7956 11.7001 21.7118 9.34382 21.7118C8.61723 21.7118 7.95188 21.5498 7.30936 21.2156C5.91327 20.4911 5.01022 19.0088 5.01022 17.4394C5.01022 15.0323 6.91389 13.1463 9.34382 13.1463C9.43516 13.1463 9.52235 13.1494 9.60747 13.1556V10.5897C9.51716 10.5814 9.42997 10.5762 9.34382 10.5762L9.34693 10.5752Z" fill="#55402B"/>
</svg>
