<svg width="25" height="28" viewBox="0 0 25 28" fill="none" xmlns="http://www.w3.org/2000/svg">
<path fill-rule="evenodd" clip-rule="evenodd" d="M22.4877 9.34223L24.6406 8.76878C23.6358 5.32442 21.2205 2.45474 17.8721 1.04419C14.7388 -0.294675 10.3383 -0.0796308 7.22927 1.23493C1.72802 3.53117 0.485134 9.24625 0.508218 14.6515C0.508218 16.9235 0.890924 19.148 1.77662 21.1575C4.02426 26.2518 8.92775 28.2601 14.2613 27.7826C18.6376 27.3999 22.7513 24.8412 23.3734 20.1771C23.5641 18.7896 23.3977 17.3791 22.7756 16.1593C22.0345 14.7001 20.4077 13.4086 18.8769 12.8352C18.7578 11.1136 18.2549 9.39083 16.9634 8.17103C15.8626 7.11889 14.3561 6.56852 12.4669 6.6645C9.35784 6.78357 8.06636 8.7214 7.80272 9.1284L9.66765 10.3956C10.5764 9.22317 12.0113 8.76878 13.4704 8.93644C16.4361 9.27177 16.5078 12.0929 16.5078 12.0929L16.5321 12.2119L16.3887 12.1876C14.9296 11.9009 13.6624 11.8766 12.6819 11.9969C11.6772 12.0929 10.9361 12.3079 10.4574 12.4986C9.26186 12.953 8.37617 13.7901 7.8744 14.818C7.39572 15.8227 7.30095 17.0182 7.70674 18.238C8.11374 19.4104 8.99822 20.1989 10.099 20.6533C11.4147 21.2268 12.9929 21.3228 14.3087 21.0603C17.0351 20.4869 18.5659 17.9756 18.8052 15.3683C20.5037 16.3014 21.3639 17.712 21.2205 19.6255C20.9338 23.6676 16.4616 25.6042 12.8022 25.5811C9.40644 25.5568 6.32049 24.3856 4.50294 21.324C2.70969 18.3109 2.47035 14.0769 3.0924 10.6811C3.59417 7.93047 4.79088 5.27583 7.25357 3.745C9.74055 2.23848 13.5433 2.1182 16.2939 2.88361C19.522 3.81668 21.4356 6.1846 22.4877 9.34102V9.34223ZM13.9734 18.837C13.208 18.9804 12.1316 19.0047 11.2471 18.6936C10.5776 18.4543 10.0273 18.0242 9.83653 17.3548C9.42953 15.9199 10.3869 14.8909 11.7015 14.5082C12.4669 14.2931 13.4473 14.2445 14.237 14.2445C15.0498 14.2688 15.8396 14.3636 16.628 14.5555C16.628 16.2771 15.8626 18.4543 13.9734 18.837Z" fill="#55402B"/>
</svg>
