<svg width="23" height="28" viewBox="0 0 23 28" fill="none" xmlns="http://www.w3.org/2000/svg">
<path d="M5.54147 27.9885L5.32225 27.3372C4.42517 24.6683 5.16157 21.1374 5.19349 20.9884L6.90998 13.4255C5.78303 9.31887 7.3814 7.61515 8.44769 6.96282C9.60017 6.24877 10.925 6.24345 11.9019 6.95005C12.8906 7.66517 13.3098 8.93577 12.9991 10.2713C12.7969 11.4887 11.72 14.6258 11.5795 15.0313C11.2305 16.5509 12.5202 17.001 12.7841 17.0766C15.6755 17.8407 17.1259 13.8298 17.1397 13.7894L17.1429 13.7798C17.6016 12.5305 17.8048 11.3706 17.7442 10.3309C17.5622 6.76276 14.8901 4.39394 11.2464 4.5674C8.63072 4.7217 6.45878 6.18811 5.4457 8.49095C4.074 11.6494 6.09164 14.2672 6.17784 14.3768L6.43217 14.6993L6.31937 15.0962L5.30842 18.5632L4.43794 18.0875C1.77648 16.6286 0.333477 14.2246 0.264307 11.1301C0.215355 8.9113 0.897481 7.11074 0.95601 6.95856C2.49372 2.86687 5.65746 1.20253 8.04118 0.527853C10.1386 -0.0733966 12.4308 -0.16385 14.4953 0.271391C16.7918 0.755583 18.7541 1.86231 20.1694 3.47132C22.8511 6.49885 23.5768 10.4224 22.2126 14.5152C21.1357 17.8119 17.7399 21.3098 13.9228 21.4492C12.2606 21.5226 11.0091 20.8692 10.1769 20.201C9.83748 21.7993 9.25645 23.4945 9.22346 23.5924L9.21707 23.6105C7.88262 27.2116 6.67586 27.7884 6.21934 27.8682L5.54253 27.9874L5.54147 27.9885ZM6.75461 21.3247C6.73226 21.4343 6.30766 23.5424 6.55029 25.5164C6.86741 25.0301 7.27073 24.2629 7.71555 23.0646C8.01564 22.1909 8.79035 19.6827 8.82121 18.4323L8.88825 15.7975L10.294 18.0269C10.343 18.1024 11.5678 19.9562 13.8568 19.8551C16.9429 19.7423 19.8076 16.7361 20.6962 14.015C21.8742 10.4799 21.2612 7.1118 18.9722 4.52696C16.1341 1.3015 11.5455 1.18337 8.47748 2.06237C5.52125 2.89986 3.49403 4.7366 2.44796 7.5247L2.44264 7.53853C2.43732 7.55343 1.80627 9.18691 1.86054 11.1428C1.92014 13.2903 2.75657 14.9685 4.3528 16.1433L4.68163 15.0164C4.0442 14.0437 2.53097 11.1982 3.98567 7.84927C5.22754 5.02605 7.97839 3.15845 11.1645 2.97116C15.6797 2.75727 19.1148 5.81566 19.3404 10.2426C19.4128 11.4951 19.1787 12.87 18.6445 14.3247C17.9783 16.2104 15.8127 19.5284 12.3691 18.6175C11.1209 18.2833 9.47247 16.9436 10.0375 14.6194L10.0588 14.546C10.3898 13.5915 11.2826 10.913 11.4284 9.99142L11.4412 9.9297C11.6136 9.21352 11.4369 8.58247 10.9676 8.24407C10.5185 7.9195 9.88962 7.94823 9.28518 8.32282C8.06353 9.07092 7.79323 10.7502 8.49983 13.1828L8.5573 13.3808L6.75355 21.3268L6.75461 21.3247Z" fill="#55402B"/>
</svg>
