<svg width="25" height="26" viewBox="0 0 25 26" fill="none" xmlns="http://www.w3.org/2000/svg">
<path fill-rule="evenodd" clip-rule="evenodd" d="M4.61121 22.3614L6.31982 22.0692L7.3615 21.8819C8.82027 22.6737 10.4251 23.1109 12.1962 23.1109C17.7814 23.1109 22.3028 18.5684 22.3028 12.9831C22.3028 7.39788 17.7814 2.87653 12.1973 2.87653C6.61305 2.87653 2.08959 7.42011 2.08959 12.9842C2.08959 15.0263 2.69406 16.8598 3.69445 18.4435L3.56953 19.3602L3.3197 21.1938L3.13232 22.6112L4.61227 22.3614H4.61121ZM12.1973 0.918091C18.8866 0.918091 24.2634 6.31491 24.2634 12.9842C24.2634 19.6535 18.8866 25.0704 12.1973 25.0704C10.3637 25.0704 8.65512 24.6957 7.11272 23.9663L0.673161 25.0704L1.54864 18.6933L1.48618 18.5684C0.630816 16.9222 0.131149 15.0263 0.131149 12.9842C0.131149 6.31491 5.52797 0.918091 12.1973 0.918091ZM7.90456 7.48257C8.59266 7.04536 9.0087 7.35765 9.25959 8.02458L9.86406 9.62944C9.86406 9.62944 10.3013 10.4837 9.19713 11.338C9.07222 11.4213 9.03058 11.5671 9.07222 11.7753C9.32205 12.5046 10.3013 14.714 13.4274 16.4226C13.7397 16.61 13.8021 16.61 14.0943 16.3601C14.3441 16.1103 14.6564 15.8181 14.9073 15.5683C15.4493 15.0686 15.7616 14.9013 16.2412 15.256C16.6159 15.5058 16.9917 15.8192 17.3453 16.0478C17.72 16.3601 18.3245 16.7359 17.72 17.4653L17.1579 18.1322C16.3661 19.1115 15.6992 19.1739 14.6575 18.9453C10.6771 17.9036 7.73942 15.0697 6.44685 11.0893C6.00964 9.56804 6.63423 8.27653 7.90562 7.48363L7.90456 7.48257Z" fill="#55402B"/>
</svg>
