<svg width="25" height="26" viewBox="0 0 25 26" fill="none" xmlns="http://www.w3.org/2000/svg">
<path fill-rule="evenodd" clip-rule="evenodd" d="M6.55903 2.99766H17.5522C20.027 2.99766 22.0482 5.02568 22.0482 7.50892V18.4774C22.0482 20.9607 20.027 22.9887 17.5522 22.9887H6.55903C4.0842 22.9887 2.08296 20.9607 2.08296 18.4774V7.50997C2.08296 5.02673 4.08315 2.99872 6.55903 2.99872V2.99766ZM12.0451 8.66853H12.086C14.4582 8.66853 16.4175 10.6345 16.4175 12.9937C16.4175 15.4149 14.4582 17.3809 12.086 17.3809H12.0451C9.673 17.3809 7.71367 15.4149 7.71367 12.9937C7.71367 10.6345 9.673 8.66853 12.0451 8.66853ZM12.0451 6.41343H12.086C15.6547 6.41343 18.645 9.41392 18.645 12.9947C18.645 16.6376 15.6547 19.5761 12.086 19.5761H12.0451C8.45654 19.5761 5.52802 16.6376 5.52802 12.9947C5.52802 9.41392 8.45654 6.41343 12.0451 6.41343ZM18.5424 5.15079C19.2852 5.15079 19.9244 5.77212 19.9244 6.53749C19.9244 7.28288 19.2852 7.92419 18.5424 7.92419C17.7377 7.92419 17.1603 7.28288 17.1603 6.53749C17.1603 5.77212 17.7377 5.15079 18.5424 5.15079ZM6.51712 0.92865H17.614C21.1827 0.92865 24.1311 3.86711 24.1311 7.44794V18.5405C24.1311 22.1213 21.1817 25.0598 17.614 25.0598H6.51712C2.94842 25.0598 0 22.1213 0 18.5405V7.44794C0 3.86711 2.94947 0.92865 6.51712 0.92865Z" fill="#55402B"/>
</svg>
